<svg t="1613446316798" class="icon" viewBox="0 0 1024 1024" version="1.1" xmlns="http://www.w3.org/2000/svg" p-id="10030" id="mx_n_1613446316807" width="200" height="200"><path d="M946.54359 307.2c-40.697436-77.45641-69.579487-119.466667-86.646154-135.220513-31.507692-27.569231-69.579487 18.379487-35.446154 60.389744 49.887179 61.702564 84.020513 153.6 43.323077 170.666666-40.697436 18.379487-70.892308-21.005128-91.897436-64.328205-19.692308-43.323077-63.015385-18.379487-34.133333 52.512821 24.94359 60.389744-27.569231 70.892308-44.635898 72.205128 18.379487 31.507692 28.882051 69.579487 28.882052 108.964103l1.31282 7.876923c2.625641 0 5.251282 1.312821 9.189744 1.31282 72.205128 2.625641 174.605128-38.071795 213.989743-74.830769 38.071795-36.758974 35.446154-124.717949-3.938461-199.548718z" fill="#FBF1C8" p-id="10031"></path><path d="M741.74359 590.769231H735.179487c-3.938462 0-6.564103-1.312821-10.502564-1.312821-3.938462-1.312821-6.564103-3.938462-6.564102-6.564102l-1.312821-7.876923c0-38.071795-9.189744-74.830769-27.569231-106.338462-1.312821-2.625641-1.312821-5.251282 0-7.876923 1.312821-2.625641 3.938462-3.938462 6.564103-3.938462 9.189744-1.312821 30.194872-5.251282 39.384615-19.692307 6.564103-10.502564 5.251282-23.630769-1.31282-40.697436-18.379487-45.948718-9.189744-74.830769 7.876923-82.707692 11.815385-5.251282 30.194872 0 42.010256 23.630769 24.94359 52.512821 51.2 72.205128 80.082051 60.389743 6.564103-2.625641 10.502564-7.876923 11.815385-15.753846 7.876923-30.194872-18.379487-93.210256-57.764103-143.097436-22.317949-27.569231-17.066667-57.764103-2.625641-72.205128 11.815385-10.502564 31.507692-15.753846 49.88718 0 19.692308 17.066667 51.2 65.641026 89.271795 137.846154 42.010256 80.082051 43.323077 170.666667 1.31282 210.051282-38.071795 35.446154-139.158974 76.14359-213.989743 76.14359z m-7.876923-17.066667h2.625641c70.892308 2.625641 171.979487-38.071795 208.738461-72.205128 35.446154-34.133333 32.820513-116.841026-5.251282-190.358974-49.887179-94.523077-74.830769-123.405128-85.333333-132.594872-10.502564-7.876923-19.692308-7.876923-27.569231-1.312821-10.502564 9.189744-11.815385 30.194872 3.938462 49.88718 36.758974 45.948718 70.892308 116.841026 61.702564 156.225641-2.625641 13.128205-10.502564 22.317949-21.005128 26.25641-26.25641 11.815385-65.641026 9.189744-102.4-68.266667-6.564103-13.128205-14.441026-18.379487-19.692308-15.753846-9.189744 3.938462-14.441026 24.94359 0 61.702564 9.189744 22.317949 9.189744 40.697436 0 56.451282-9.189744 15.753846-26.25641 22.317949-39.384616 26.256411 15.753846 31.507692 23.630769 66.953846 23.63077 103.71282z" fill="#611014" p-id="10032"></path><path d="M525.128205 929.476923h-24.94359c-99.774359 0-183.794872-66.953846-208.738461-158.851282-7.876923-26.25641-7.876923-55.138462-5.251282-82.707692l13.128205-114.215385c0-119.466667 93.210256-216.615385 212.676923-216.615385s212.676923 97.148718 212.676923 216.615385l13.128205 114.215385c2.625641 27.569231 2.625641 55.138462-5.251282 82.707692C708.923077 861.210256 624.902564 929.476923 525.128205 929.476923z" fill="#CBAB88" p-id="10033" data-spm-anchor-id="a313x.7781069.0.i3" class=""></path><path d="M525.128205 937.353846h-24.94359c-101.087179 0-190.358974-68.266667-216.615384-165.415384-6.564103-24.94359-9.189744-53.825641-5.251282-85.333334l13.128205-114.215384c0-124.717949 97.148718-224.492308 220.553846-224.492308S732.553846 446.358974 732.553846 572.389744l13.128205 112.902564c3.938462 31.507692 2.625641 60.389744-5.251282 85.333333-24.94359 98.461538-114.215385 166.728205-215.302564 166.728205z m-11.815384-572.389743c-114.215385 0-204.8 91.897436-204.8 208.738461l-13.128206 115.528205c-3.938462 28.882051-1.312821 55.138462 3.938462 78.769231 24.94359 90.584615 107.651282 152.287179 200.861538 152.287179H525.128205c93.210256 0 175.917949-63.015385 200.861539-152.287179 6.564103-23.630769 7.876923-49.887179 3.938461-78.769231l-13.128205-114.215384c0-118.153846-89.271795-210.051282-203.487179-210.051282z" fill="#611014" p-id="10034"></path><path d="M299.323077 581.579487l1.31282-7.876923c0-39.384615 10.502564-77.45641 28.882052-108.964102-17.066667-1.312821-68.266667-13.128205-44.635898-72.205129 28.882051-70.892308-14.441026-94.523077-34.133333-52.51282-19.692308 43.323077-49.887179 82.707692-91.897436 64.328205-40.697436-18.379487-6.564103-108.964103 43.323077-170.666667 34.133333-40.697436-3.938462-87.958974-35.446154-60.389743-17.066667 15.753846-47.261538 57.764103-86.646154 135.220513-39.384615 74.830769-42.010256 162.789744-3.938461 199.548717 39.384615 36.758974 141.784615 77.45641 213.989743 74.83077 2.625641 0 6.564103-1.312821 9.189744-1.312821z" fill="#FBF1C8" p-id="10035"></path><path d="M283.569231 590.769231c-74.830769 0-175.917949-40.697436-213.989744-77.45641-40.697436-39.384615-40.697436-129.969231 1.312821-210.051283 38.071795-72.205128 68.266667-120.779487 89.271795-137.846153 18.379487-15.753846 38.071795-11.815385 49.887179 0 15.753846 14.441026 19.692308 44.635897-2.625641 72.205128-40.697436 49.887179-65.641026 111.589744-57.764103 143.097436 1.312821 7.876923 5.251282 13.128205 11.815385 15.753846 28.882051 13.128205 56.451282-7.876923 80.082051-60.389744 11.815385-23.630769 28.882051-28.882051 42.010257-23.630769 17.066667 7.876923 27.569231 36.758974 7.876923 82.707692-6.564103 17.066667-7.876923 31.507692-1.312821 40.697436 9.189744 14.441026 30.194872 18.379487 39.384616 19.692308 2.625641 0 5.251282 2.625641 6.564102 3.938461s1.312821 5.251282 0 7.876924c-18.379487 31.507692-27.569231 68.266667-27.56923 105.025641l-1.312821 9.189743c0 3.938462-2.625641 6.564103-6.564103 6.564103l-1.31282-7.876923 1.31282 7.876923c-2.625641 0-6.564103 1.312821-10.502564 1.31282-1.312821 1.312821-3.938462 1.312821-6.564102 1.312821z m-97.148718-418.789744c-5.251282 0-10.502564 2.625641-14.441026 6.564103-10.502564 9.189744-35.446154 38.071795-85.333333 132.594872-38.071795 73.517949-40.697436 156.225641-5.251282 190.358974 36.758974 34.133333 137.846154 74.830769 208.738461 72.205128h2.625641v-1.31282c0-35.446154 7.876923-70.892308 24.94359-102.4-13.128205-2.625641-30.194872-10.502564-39.384615-26.256411-9.189744-14.441026-7.876923-34.133333 0-56.451282 14.441026-35.446154 9.189744-57.764103 0-61.702564-5.251282-2.625641-13.128205 2.625641-19.692308 15.753846-36.758974 77.45641-76.14359 80.082051-102.4 68.266667-10.502564-5.251282-18.379487-14.441026-21.005128-26.25641-10.502564-40.697436 24.94359-111.589744 61.702564-156.225641 15.753846-19.692308 13.128205-40.697436 3.938461-49.88718-5.251282-2.625641-10.502564-5.251282-14.441025-5.251282z" fill="#611014" p-id="10036"></path><path d="M838.892308 164.102564c6.564103 0 13.128205 2.625641 19.692307 7.876923 17.066667 15.753846 47.261538 57.764103 86.646154 135.220513 39.384615 74.830769 42.010256 162.789744 3.938462 199.548718-38.071795 36.758974-217.928205 73.517949-223.179487 73.517949l13.128205 106.338461c2.625641 27.569231 2.625641 55.138462-5.251282 82.707693-24.94359 91.897436-108.964103 158.851282-208.738462 158.851282h-24.94359c-99.774359 0-183.794872-66.953846-208.738461-158.851282-7.876923-26.25641-7.876923-55.138462-5.251282-82.707693l13.128205-106.338461c-2.625641 0-5.251282 1.312821-9.189744 1.31282h-5.251282c-72.205128 0-170.666667-39.384615-208.738461-74.830769-39.384615-36.758974-36.758974-124.717949 2.625641-199.548718 40.697436-77.45641 69.579487-119.466667 86.646154-135.220513 6.564103-5.251282 13.128205-7.876923 19.692307-7.876923 24.94359 0 42.010256 35.446154 15.753846 68.266667-49.887179 61.702564-84.020513 153.6-43.323076 170.666666 6.564103 2.625641 13.128205 3.938462 19.692307 3.938462 31.507692 0 55.138462-32.820513 70.892308-68.266667 6.564103-14.441026 15.753846-21.005128 24.94359-21.005128 17.066667 0 28.882051 26.25641 10.502564 73.517949-24.94359 60.389744 27.569231 70.892308 44.635897 72.205128 36.758974-64.328205 103.712821-107.651282 183.794872-107.651282s147.035897 43.323077 183.794872 107.651282c17.066667-1.312821 68.266667-13.128205 44.635897-72.205128-19.692308-47.261538-6.564103-73.517949 10.502564-73.517949 7.876923 0 18.379487 6.564103 24.94359 21.005128 17.066667 35.446154 40.697436 68.266667 70.892308 68.266667 6.564103 0 13.128205-1.312821 19.692307-3.938462 40.697436-18.379487 6.564103-108.964103-43.323076-170.666666-26.25641-32.820513-7.876923-68.266667 15.753846-68.266667M186.420513 131.282051c-14.441026 0-28.882051 5.251282-42.010257 17.066667-22.317949 19.692308-55.138462 68.266667-94.523077 144.410256-48.574359 91.897436-47.261538 191.671795 2.625642 238.933334 42.010256 40.697436 135.220513 76.14359 208.738461 82.707692l-7.876923 69.579487c-3.938462 34.133333-2.625641 65.641026 5.251282 94.523077 30.194872 107.651282 128.65641 183.794872 240.246154 183.794872h26.25641c111.589744 0 211.364103-74.830769 240.246154-183.794872 7.876923-28.882051 9.189744-60.389744 5.251282-94.523077l-9.189744-76.14359c59.076923-13.128205 173.292308-42.010256 210.051282-76.143589 49.887179-47.261538 51.2-148.348718 2.625642-238.933334-40.697436-76.14359-72.205128-124.717949-94.523077-144.410256-11.815385-10.502564-26.25641-17.066667-42.010257-17.066667-23.630769 0-44.635897 14.441026-55.138461 35.446154-13.128205 27.569231-7.876923 60.389744 13.128205 86.646154 40.697436 51.2 57.764103 106.338462 53.825641 120.779487-1.312821 0-3.938462 1.312821-5.251282 1.312821-7.876923 0-24.94359-13.128205-42.010257-49.88718-11.815385-24.94359-32.820513-40.697436-55.138461-40.697436-17.066667 0-31.507692 7.876923-40.697436 22.317949-15.753846 22.317949-15.753846 56.451282 1.31282 95.835897 5.251282 11.815385 3.938462 18.379487 3.938462 19.692308 0 1.312821-1.312821 1.312821-2.625641 2.625641-45.948718-64.328205-118.153846-101.087179-198.235898-101.087179s-152.287179 38.071795-198.235897 101.087179c-1.312821-1.312821-2.625641-1.312821-2.625641-2.625641-1.312821-1.312821-1.312821-7.876923 3.938462-19.692308 15.753846-39.384615 15.753846-73.517949 1.31282-95.835897-9.189744-14.441026-24.94359-22.317949-40.697436-22.317949-22.317949 0-43.323077 14.441026-55.138461 40.697436-17.066667 36.758974-32.820513 49.887179-42.010257 49.88718-1.312821 0-2.625641 0-5.251282-1.312821-3.938462-14.441026 11.815385-69.579487 53.825641-120.779487 21.005128-26.25641 26.25641-59.076923 13.128205-86.646154-7.876923-22.317949-28.882051-35.446154-52.51282-35.446154z" fill="#611014" p-id="10037"></path><path d="M526.441026 620.964103c-94.523077 0-186.420513 24.94359-178.54359 72.205128 6.564103 47.261538 65.641026 116.841026 165.415385 116.841025 91.897436 0 165.415385-69.579487 165.415384-123.405128s-81.394872-65.641026-152.287179-65.641025z" fill="#CF4240" p-id="10038" data-spm-anchor-id="a313x.7781069.0.i1" class=""></path><path d="M513.312821 817.887179c-106.338462 0-166.728205-74.830769-173.292308-124.717948-1.312821-13.128205 1.312821-23.630769 10.502564-34.133334 30.194872-34.133333 110.276923-47.261538 175.917949-47.261538 106.338462 0 160.164103 24.94359 160.164102 73.517949 0 60.389744-77.45641 132.594872-173.292307 132.594871z m13.128205-189.046153c-76.14359 0-143.097436 17.066667-164.102564 40.697436-5.251282 6.564103-7.876923 14.441026-6.564103 21.005128 6.564103 45.948718 64.328205 110.276923 157.538462 110.276923 91.897436 0 157.538462-69.579487 157.538461-115.528205 0-45.948718-78.769231-56.451282-144.410256-56.451282zM513.312821 887.466667c-35.446154 0-55.138462-23.630769-55.138462-24.94359-2.625641-3.938462-2.625641-9.189744 1.31282-11.815385 3.938462-2.625641 9.189744-2.625641 11.815385 1.312821 1.312821 1.312821 15.753846 18.379487 42.010257 18.379487 27.569231 0 42.010256-18.379487 42.010256-18.379487 2.625641-3.938462 7.876923-3.938462 11.815385-1.312821 3.938462 2.625641 3.938462 7.876923 1.31282 11.815385-1.312821 1.312821-19.692308 24.94359-55.138461 24.94359z" fill="#611014" p-id="10039"></path><path d="M519.876923 731.241026c-44.635897 0-86.646154 6.564103-84.020513 18.379487s30.194872 30.194872 77.456411 30.194872c43.323077 0 77.45641-18.379487 77.45641-31.507693 0-14.441026-38.071795-17.066667-70.892308-17.066666z" fill="#B23838" p-id="10040" data-spm-anchor-id="a313x.7781069.0.i2"></path><path d="M303.261538 522.502564c-63.015385-11.815385-56.451282-40.697436-89.271794-44.635897s-43.323077 30.194872-111.589744-10.502564c-31.507692-18.379487-44.635897-69.579487-44.635897-102.4-15.753846 59.076923-10.502564 115.528205 18.379487 143.097435 39.384615 36.758974 141.784615 77.45641 213.989743 74.83077 3.938462 0 6.564103-1.312821 9.189744-1.312821l1.31282-7.876923c0-11.815385 1.312821-22.317949 2.625641-34.133333-6.564103-1.312821 5.251282-15.753846 0-17.066667zM725.989744 573.702564l1.31282 7.876923c2.625641 0 5.251282 1.312821 9.189744 1.312821 72.205128 2.625641 174.605128-38.071795 213.989743-74.83077 31.507692-30.194872 35.446154-93.210256 15.753846-156.225641-6.564103 76.14359-17.066667 97.148718-49.887179 122.092308-34.133333 26.25641-63.015385 11.815385-111.589744 18.379487-45.948718 6.564103-38.071795 40.697436-81.394871 48.574359 1.312821 10.502564 2.625641 21.005128 2.625641 32.820513z" fill="#E4DAB6" p-id="10041"></path><path d="M283.569231 590.769231c-74.830769 0-175.917949-40.697436-213.989744-77.45641-40.697436-39.384615-40.697436-129.969231 1.312821-210.051283 38.071795-72.205128 68.266667-120.779487 89.271795-137.846153 18.379487-15.753846 38.071795-11.815385 49.887179 0 15.753846 14.441026 19.692308 44.635897-2.625641 72.205128-40.697436 49.887179-65.641026 111.589744-57.764103 143.097436 1.312821 7.876923 5.251282 13.128205 11.815385 15.753846 28.882051 13.128205 56.451282-7.876923 80.082051-60.389744 11.815385-23.630769 28.882051-28.882051 42.010257-23.630769 17.066667 7.876923 27.569231 36.758974 7.876923 82.707692-6.564103 17.066667-7.876923 31.507692-1.312821 40.697436 9.189744 14.441026 30.194872 18.379487 39.384616 19.692308 2.625641 0 5.251282 2.625641 6.564102 3.938461s1.312821 5.251282 0 7.876924c-18.379487 31.507692-27.569231 68.266667-27.56923 105.025641l-1.312821 9.189743c0 3.938462-2.625641 6.564103-6.564103 6.564103l-1.31282-7.876923 1.31282 7.876923c-2.625641 0-6.564103 1.312821-10.502564 1.31282-1.312821 1.312821-3.938462 1.312821-6.564102 1.312821z m-97.148718-418.789744c-5.251282 0-10.502564 2.625641-14.441026 6.564103-10.502564 9.189744-35.446154 38.071795-85.333333 132.594872-38.071795 73.517949-40.697436 156.225641-5.251282 190.358974 36.758974 34.133333 137.846154 74.830769 208.738461 72.205128h2.625641v-1.31282c0-35.446154 7.876923-70.892308 24.94359-102.4-13.128205-2.625641-30.194872-10.502564-39.384615-26.256411-9.189744-14.441026-7.876923-34.133333 0-56.451282 14.441026-35.446154 9.189744-57.764103 0-61.702564-5.251282-2.625641-13.128205 2.625641-19.692308 15.753846-36.758974 77.45641-76.14359 80.082051-102.4 68.266667-10.502564-5.251282-18.379487-14.441026-21.005128-26.25641-10.502564-40.697436 24.94359-111.589744 61.702564-156.225641 15.753846-19.692308 13.128205-40.697436 3.938461-49.88718-5.251282-2.625641-10.502564-5.251282-14.441025-5.251282zM741.74359 590.769231H735.179487c-3.938462 0-6.564103-1.312821-10.502564-1.312821-3.938462-1.312821-6.564103-3.938462-6.564102-6.564102l-1.312821-7.876923c0-38.071795-9.189744-74.830769-27.569231-106.338462-1.312821-2.625641-1.312821-5.251282 0-7.876923 1.312821-2.625641 3.938462-3.938462 6.564103-3.938462 9.189744-1.312821 30.194872-5.251282 39.384615-19.692307 6.564103-10.502564 5.251282-23.630769-1.31282-40.697436-18.379487-45.948718-9.189744-74.830769 7.876923-82.707692 11.815385-5.251282 30.194872 0 42.010256 23.630769 24.94359 52.512821 51.2 72.205128 80.082051 60.389743 6.564103-2.625641 10.502564-7.876923 11.815385-15.753846 7.876923-30.194872-18.379487-93.210256-57.764103-143.097436-22.317949-27.569231-17.066667-57.764103-2.625641-72.205128 11.815385-10.502564 31.507692-15.753846 49.88718 0 19.692308 17.066667 51.2 65.641026 89.271795 137.846154 42.010256 80.082051 43.323077 170.666667 1.31282 210.051282-38.071795 35.446154-139.158974 76.14359-213.989743 76.14359z m-7.876923-17.066667h2.625641c70.892308 2.625641 171.979487-38.071795 208.738461-72.205128 35.446154-34.133333 32.820513-116.841026-5.251282-190.358974-49.887179-94.523077-74.830769-123.405128-85.333333-132.594872-10.502564-7.876923-19.692308-7.876923-27.569231-1.312821-10.502564 9.189744-11.815385 30.194872 3.938462 49.88718 36.758974 45.948718 70.892308 116.841026 61.702564 156.225641-2.625641 13.128205-10.502564 22.317949-21.005128 26.25641-26.25641 11.815385-65.641026 9.189744-102.4-68.266667-6.564103-13.128205-14.441026-18.379487-19.692308-15.753846-9.189744 3.938462-14.441026 24.94359 0 61.702564 9.189744 22.317949 9.189744 40.697436 0 56.451282-9.189744 15.753846-26.25641 22.317949-39.384616 26.256411 15.753846 31.507692 23.630769 66.953846 23.63077 103.71282z" fill="#611014" p-id="10042"></path><path d="M387.830886 693.335003a11.815385 24.94359 60.628 1 0 43.474363-24.468561 11.815385 24.94359 60.628 1 0-43.474363 24.468561Z" fill="#DB605F" p-id="10043"></path><path d="M430.605128 543.507692m-39.384615 0a39.384615 39.384615 0 1 0 78.769231 0 39.384615 39.384615 0 1 0-78.769231 0Z" fill="#FFFFFF" p-id="10044"></path><path d="M430.605128 590.769231c-26.25641 0-47.261538-21.005128-47.261538-47.261539s21.005128-47.261538 47.261538-47.261538 47.261538 21.005128 47.261539 47.261538-22.317949 47.261538-47.261539 47.261539z m0-77.45641c-17.066667 0-30.194872 13.128205-30.194872 30.194871 0 17.066667 13.128205 30.194872 30.194872 30.194872 17.066667 0 30.194872-13.128205 30.194872-30.194872 0-17.066667-14.441026-30.194872-30.194872-30.194871z" fill="#611014" p-id="10045"></path><path d="M596.020513 543.507692m-39.384616 0a39.384615 39.384615 0 1 0 78.769231 0 39.384615 39.384615 0 1 0-78.769231 0Z" fill="#FFFFFF" p-id="10046"></path><path d="M596.020513 590.769231c-26.25641 0-47.261538-21.005128-47.261539-47.261539s21.005128-47.261538 47.261539-47.261538 47.261538 21.005128 47.261538 47.261538-21.005128 47.261538-47.261538 47.261539z m0-77.45641c-17.066667 0-30.194872 13.128205-30.194872 30.194871 0 17.066667 13.128205 30.194872 30.194872 30.194872 17.066667 0 30.194872-13.128205 30.194872-30.194872 0-17.066667-13.128205-30.194872-30.194872-30.194871z" fill="#611014" p-id="10047"></path><path d="M420.102564 543.507692m-13.128205 0a13.128205 13.128205 0 1 0 26.25641 0 13.128205 13.128205 0 1 0-26.25641 0Z" fill="#611014" p-id="10048"></path><path d="M585.517949 543.507692m-13.128205 0a13.128205 13.128205 0 1 0 26.25641 0 13.128205 13.128205 0 1 0-26.25641 0Z" fill="#611014" p-id="10049"></path><path d="M622.784315 459.661928a32.820513 17.066667 20.695 1 0 12.062488-31.930876 32.820513 17.066667 20.695 1 0-12.062488 31.930876Z" fill="#DBBCA6" p-id="10050"></path><path d="M565.308521 412.292064a23.630769 11.815385 20.695 1 0 8.350954-22.105991 23.630769 11.815385 20.695 1 0-8.350954 22.105991Z" fill="#DBBCA6" p-id="10051"></path></svg>
